<svg baseProfile="full" height="248px" preserveAspectRatio="xMidYMid meet" style="font-family: times, serif; font-weight: normal; font-style: normal; font-size: 16px;" version="1.1" viewBox="0,0,144.0,248.0" width="144px" xmlns="http://www.w3.org/2000/svg" xmlns:ev="http://www.w3.org/2001/xml-events" xmlns:xlink="http://www.w3.org/1999/xlink"><defs /><svg width="100%" x="0" y="0px"><defs /><text text-anchor="middle" x="50%" y="16px">句子</text></svg><svg width="27.7778%" x="0%" y="48px"><defs /><svg width="100%" x="0" y="0px"><defs /><text text-anchor="middle" x="50%" y="16px">主詞</text></svg><svg width="100%" x="0%" y="48px"><defs /><svg width="100%" x="0" y="8px"><defs /><text text-anchor="middle" x="50%" y="16px">代詞 </text></svg><svg width="100%" x="0%" y="64px"><defs /><svg width="100%" x="0" y="8px"><defs /><text text-anchor="middle" x="50%" y="16px">我</text></svg></svg><line stroke="black" x1="50%" x2="50%" y1="27.2px" y2="72px" /></svg><line stroke="black" x1="50%" x2="50%" y1="19.2px" y2="56px" /></svg><line stroke="black" x1="50%" x2="13.8889%" y1="19.2px" y2="48px" /><svg width="72.2222%" x="27.7778%" y="48px"><defs /><svg width="100%" x="0" y="0px"><defs /><text text-anchor="middle" x="50%" y="16px">謂語</text></svg><svg width="69.2308%" x="0%" y="48px"><defs /><svg width="100%" x="0" y="0px"><defs /><text text-anchor="middle" x="50%" y="16px">動詞</text><text text-anchor="middle" x="50%" y="32px">片語 </text></svg><svg width="44.4444%" x="0%" y="64px"><defs /><svg width="100%" x="0" y="8px"><defs /><text text-anchor="middle" x="50%" y="16px">副詞</text></svg><svg width="100%" x="0%" y="64px"><defs /><svg width="100%" x="0" y="0px"><defs /><text text-anchor="middle" x="50%" y="16px">曾</text></svg></svg><line stroke="black" x1="50%" x2="50%" y1="27.2px" y2="64px" /></svg><line stroke="black" x1="50%" x2="22.2222%" y1="35.2px" y2="72px" /><svg width="55.5556%" x="44.4444%" y="64px"><defs /><svg width="100%" x="0" y="8px"><defs /><text text-anchor="middle" x="50%" y="16px">動詞 </text></svg><svg width="100%" x="0%" y="64px"><defs /><svg width="100%" x="0" y="0px"><defs /><text text-anchor="middle" x="50%" y="16px">旅居</text></svg></svg><line stroke="black" x1="50%" x2="50%" y1="27.2px" y2="64px" /></svg><line stroke="black" x1="50%" x2="72.2222%" y1="35.2px" y2="72px" /></svg><line stroke="black" x1="50%" x2="34.6154%" y1="19.2px" y2="48px" /><svg width="30.7692%" x="69.2308%" y="48px"><defs /><svg width="100%" x="0" y="8px"><defs /><text text-anchor="middle" x="50%" y="16px">受詞</text></svg><svg width="100%" x="0%" y="64px"><defs /><svg width="100%" x="0" y="0px"><defs /><text text-anchor="middle" x="50%" y="16px">專有</text><text text-anchor="middle" x="50%" y="32px">名詞</text></svg><svg width="100%" x="0%" y="64px"><defs /><svg width="100%" x="0" y="0px"><defs /><text text-anchor="middle" x="50%" y="16px">新竹</text></svg></svg><line stroke="black" x1="50%" x2="50%" y1="35.2px" y2="64px" /></svg><line stroke="black" x1="50%" x2="50%" y1="27.2px" y2="64px" /></svg><line stroke="black" x1="50%" x2="84.6154%" y1="19.2px" y2="56px" /></svg><line stroke="black" x1="50%" x2="63.8889%" y1="19.2px" y2="48px" /></svg>
